<svg viewBox="0 0 64 64" xmlns="http://www.w3.org/2000/svg"><path d="M55 37a3.003 3.003 0 0 0-3-3H15v-7h1v.5a2.5 2.5 0 0 0 5 0V27h1.17a3.001 3.001 0 0 0 5.66 0H29v.5a2.5 2.5 0 0 0 5 0V27h3.17a3.001 3.001 0 0 0 5.66 0h2.34A3.006 3.006 0 0 0 48 29h1v2a1 1 0 0 0 2 0v-8a3.003 3.003 0 0 0-3-3h-3.752l1.867-1.867a3.016 3.016 0 0 0-4.265-4.266l-.006.006-.006-.006a3.018 3.018 0 0 0-4.918.973 3.01 3.01 0 0 0-4.914-.973l-.006.006-.006-.006a3.013 3.013 0 0 0-4.921.987 3.014 3.014 0 0 0-4.922-.987l-.005.006-.006-.006a3.016 3.016 0 0 0-4.265 4.266L19.742 20H16a3.003 3.003 0 0 0-3 3v11h-1a3.003 3.003 0 0 0-3 3v7a1 1 0 0 0 1 1h3a3.003 3.003 0 0 0 3-3v-2h1v1a3.003 3.003 0 0 0 3 3h1a3.003 3.003 0 0 0 3-3v-1h1v3a3.003 3.003 0 0 0 3 3h1a3.003 3.003 0 0 0 3-3v-3h1a3 3 0 0 0 6 0h1a3.003 3.003 0 0 0 3 3h1a3.003 3.003 0 0 0 3-3h1v3a3.003 3.003 0 0 0 3 3h2v6a1 1 0 0 1-1 1H12a1 1 0 0 1-1-1v-4a1 1 0 0 0-2 0v4a3.003 3.003 0 0 0 3 3h40a3.003 3.003 0 0 0 3-3v-6a.973.973 0 0 0-.153-.5A.973.973 0 0 0 55 45ZM38.987 15.281a1.017 1.017 0 0 1 1.437 0l.713.713a1 1 0 0 0 1.414 0l.713-.713a1.016 1.016 0 0 1 1.437 1.437l-2.857 2.857-2.857-2.857a1.016 1.016 0 0 1 0-1.437ZM36.92 17.16a3.011 3.011 0 0 0 .653.973L39.44 20h-5.036l1.867-1.867a2.997 2.997 0 0 0 .649-.973Zm-7.777-1.878a1.018 1.018 0 0 1 1.437 0l.713.713a1 1 0 0 0 1.414 0l.713-.713a1.016 1.016 0 0 1 1.437 1.437L32 19.576l-2.857-2.857a1.019 1.019 0 0 1 0-1.437Zm-9.854 0a1.017 1.017 0 0 1 1.437 0l.713.713a1 1 0 0 0 1.414 0l.712-.713a1.016 1.016 0 0 1 1.438 1.437l-2.857 2.857-2.857-2.857a1.02 1.02 0 0 1 0-1.438Zm7.128 2.851a3 3 0 0 0 .656-.986 3.002 3.002 0 0 0 .656.987L29.596 20H24.55ZM16 22h32a1 1 0 0 1 1 1v4h-1a1 1 0 0 1-1-1 1 1 0 0 0-1-1h-4a1 1 0 0 0-1 1 1 1 0 0 1-2 0 1 1 0 0 0-1-1h-5a1 1 0 0 0-1 1v1.5a.5.5 0 0 1-1 0V26a1 1 0 0 0-1-1h-3a1 1 0 0 0-1 1 1 1 0 0 1-2 0 1 1 0 0 0-1-1h-3a1 1 0 0 0-1 1v1.5a.5.5 0 0 1-1 0V26a1 1 0 0 0-1-1h-2v-2a1 1 0 0 1 1-1Zm35 22a1 1 0 0 1-1-1v-4a1 1 0 0 0-1-1h-3a1 1 0 0 0-1 1v1a1 1 0 0 1-1 1h-1a1 1 0 0 1-1-1v-1a1 1 0 0 0-1-1h-3a1 1 0 0 0-1 1v1a1 1 0 0 1-2 0v-1a1 1 0 0 0-1-1h-3a1 1 0 0 0-1 1v4a1 1 0 0 1-1 1h-1a1 1 0 0 1-1-1v-4a1 1 0 0 0-1-1h-3a1 1 0 0 0-1 1v2a1 1 0 0 1-1 1h-1a1 1 0 0 1-1-1v-2a1 1 0 0 0-1-1h-3a1 1 0 0 0-1 1v3a1 1 0 0 1-1 1h-2v-6a1 1 0 0 1 1-1h40a1 1 0 0 1 1 1v7Z" data-name="Outline putus" fill="#ffffff" class="fill-000000"></path></svg>