<svg viewBox="0 0 32 32" xml:space="preserve" xmlns="http://www.w3.org/2000/svg" enable-background="new 0 0 32 32"><path d="M30 21.6c-.1-.3-.4-.6-.7-.7l-5.4-1.5c0-.6-.1-1.3-.2-1.9-.3-.9-.6-1.8-1-2.6.6-.9 1-2 1-3.1 0-3-2.4-5.4-5.4-5.4-.7 0-1.4.1-2 .4-4-3.2-8.7-4.7-12.9-4.2-.4 0-.8.4-.8.8-.5 4.2 1.1 8.9 4.2 12.8-.3.6-.4 1.3-.4 2 0 3 2.4 5.4 5.4 5.4 1.1 0 2.2-.4 3.1-1 .9.4 1.7.7 2.6 1 .6.2 1.2.3 1.8.3h.2l1.5 5.4c.1.3.4.6.7.7h.3c.3 0 .5-.1.7-.3l7.1-7.1c.2-.3.3-.6.2-1zM18.3 8.4c1.9 0 3.4 1.5 3.4 3.4 0 .3-.1.6-.1.9-.9-1.5-2-2.9-3.3-4.2l-.1-.1h.1zm-6.1-1.9c-1.3 2.4-3.3 4.4-5.7 5.7-1.4-2.5-2.1-5.2-2-7.7 2.5-.1 5.2.6 7.7 2zm-.5 15.1c-1.9 0-3.4-1.5-3.4-3.4V18l.1.1c1.3 1.3 2.7 2.4 4.2 3.3-.2.2-.5.2-.9.2zm6.3.1c-1-.3-1.9-.7-2.9-1.1-1.9-.9-3.6-2.2-5.2-3.8-.9-.9-1.7-1.9-2.4-2.8 2.7-1.5 4.9-3.7 6.4-6.4 1 .7 2 1.5 2.9 2.4 1.6 1.6 2.8 3.3 3.8 5.2.4.8.8 1.8 1.1 2.8.4 1.3.2 2.4-.5 3.1s-1.9.9-3.2.6zm4.4 5.4-1-3.7c.4-.2.9-.5 1.2-.8.4-.4.6-.8.8-1.2l3.7 1-4.7 4.7z" fill="#ffffff" class="fill-000000"></path><path d="M8.3 7.7c.2.2.4.3.7.3.3 0 .5-.1.7-.3.2-.2.3-.4.3-.7 0-.3-.1-.5-.3-.7-.4-.4-1-.4-1.4 0-.2.2-.3.4-.3.7 0 .3.1.5.3.7z" fill="#ffffff" class="fill-000000"></path></svg>