<svg viewBox="0 0 300 300" xml:space="preserve" xmlns="http://www.w3.org/2000/svg" enable-background="new 0 0 300 300"><path d="M296.4 107.5H3.6c-2 0-3.5 1.6-3.5 3.5 0 82.9 66.6 151.1 149.5 151.4 82.9.2 150.3-67.1 150.3-149.9V111c0-1.9-1.6-3.5-3.5-3.5zM150 252.4c-75.5 0-137.2-60.1-139.8-134.9h279.6c-2.6 74.8-64.3 134.9-139.8 134.9z" fill="#ffffff" class="fill-000000"></path><path d="M210.3 258.2c-2.8 0-5 2.2-5 5v8.7c0 3.1-2.5 5.7-5.7 5.7h-99.3c-3.1 0-5.7-2.5-5.7-5.7v-8.7c0-2.8-2.2-5-5-5s-5 2.2-5 5v8.7c0 8.7 7 15.7 15.7 15.7h99.3c8.7 0 15.7-7 15.7-15.7v-8.7c0-2.7-2.2-5-5-5zM30.3 160c1.8 2.1 5 2.3 7.1.4l13.6-12c1.9-1.7 4.7-1.7 6.6 0l17.3 15.3c1.9 1.7 4.7 1.7 6.6 0l17.3-15.3c1.9-1.7 4.7-1.7 6.6 0l17.3 15.3c1.9 1.7 4.7 1.7 6.6 0l17.3-15.3c1.9-1.7 4.7-1.7 6.6 0l17.3 15.3c1.9 1.7 4.7 1.7 6.6 0l17.3-15.3c1.9-1.7 4.7-1.7 6.6 0l17.3 15.3c1.9 1.7 4.7 1.7 6.6 0l17.3-15.3c1.9-1.7 4.7-1.7 6.6 0l13.6 12c2.1 1.8 5.2 1.6 7.1-.4 1.8-2.1 1.6-5.2-.4-7.1L249 135.1c-1.9-1.7-4.7-1.7-6.6 0l-17.3 15.3c-1.9 1.7-4.7 1.7-6.6 0l-17.3-15.3c-1.9-1.7-4.7-1.7-6.6 0l-17.3 15.3c-1.9 1.7-4.7 1.7-6.6 0l-17.3-15.3c-1.9-1.7-4.7-1.7-6.6 0l-17.3 15.3c-1.9 1.7-4.7 1.7-6.6 0l-17.3-15.3c-1.9-1.7-4.7-1.7-6.6 0l-17.3 15.3c-1.9 1.7-4.7 1.7-6.6 0l-17.3-15.3c-1.9-1.7-4.7-1.7-6.6 0L31 152.9c-2.3 1.9-2.5 5-.7 7.1zM148.3 78.1c-1 2.4-.1 5.1 2.2 6.4 2.6 1.4 5.8.3 7-2.4 7.6-17.4 1.5-28.4-3.4-37.5-4.6-8.4-7.9-14.3-1.8-24.6 1.3-2.2.7-5.1-1.3-6.6-2.4-1.7-5.8-1-7.3 1.5-8.9 15.3-3.3 25.5 1.7 34.5 4.5 8.5 8.6 15.9 2.9 28.7zM97.6 78.1c-1 2.4 0 5.1 2.2 6.3 2.6 1.4 5.9.3 7-2.4 6-14.4.9-23.6-3.3-31.2-3.7-6.6-6.2-11.3-1.8-19.2 1.2-2.2.5-4.9-1.5-6.4-2.4-1.8-5.9-1-7.3 1.7-6.9 12.7-2.1 21.5 1.9 28.7 3.7 6.7 6.9 12.6 2.8 22.5zM198.6 78.1c-1 2.4 0 5.1 2.2 6.3 2.6 1.4 5.9.3 7-2.4 6-14.4.9-23.6-3.3-31.2-3.7-6.6-6.2-11.3-1.8-19.2 1.2-2.2.5-4.9-1.5-6.4-2.4-1.8-5.9-1-7.3 1.7-6.9 12.7-2.1 21.5 1.9 28.7 3.7 6.7 6.9 12.6 2.8 22.5z" fill="#ffffff" class="fill-000000"></path></svg>