<svg viewBox="0 0 64 64" xml:space="preserve" xmlns="http://www.w3.org/2000/svg"><path fill="#D34A4B" d="M42 14h20v36H42z" class="fill-d34a4b"></path><path d="M62 51H42a1 1 0 0 1-1-1V14a1 1 0 0 1 1-1h20a1 1 0 0 1 1 1v36a1 1 0 0 1-1 1zm-19-2h18V15H43v34z" fill="#ffffff" class="fill-414042"></path><path fill="#4558A3" d="M2 14h20v36H2z" class="fill-4558a3"></path><path d="M22 51H2a1 1 0 0 1-1-1V14a1 1 0 0 1 1-1h20a1 1 0 0 1 1 1v36a1 1 0 0 1-1 1zM3 49h18V15H3v34z" fill="#ffffff" class="fill-414042"></path><path fill="#FFBF42" d="M22 14h20v36H22z" class="fill-ffbf42"></path><path d="M42 51H22a1 1 0 0 1-1-1V14a1 1 0 0 1 1-1h20a1 1 0 0 1 1 1v36a1 1 0 0 1-1 1zm-19-2h18V15H23v34z" fill="#ffffff" class="fill-414042"></path></svg>