<svg viewBox="0 0 50 50" xml:space="preserve" xmlns="http://www.w3.org/2000/svg"><path clip-rule="evenodd" d="M22.497 11.841c.938 2.104 1.833 4.244 2.622 6.429-4.348 2.171-8.412 4.798-11.939 8.168-2.56 2.462-3.669 6.56-3.335 10.017a13.798 13.798 0 0 0 1.269 4.587c-3.289-1.555-6.122-5.171-5.986-8.905.291-7.299 2.743-14.009 5.696-20.605 1.7-3.805 9.765-4.001 11.673.309M15.26 28.382c5.34-5.061 11.796-8.154 18.561-10.834 3.619-1.41 9.579 4.114 8.182 7.964-2.506 6.885-5.434 13.44-10.398 18.942-1.797 1.98-5.053 2.862-7.655 2.675-5.388-.387-10.758-5.546-11.279-10.941-.257-2.685.592-5.908 2.589-7.806zm8.615 2.058a5.32 5.32 0 0 1 5.322 5.323 5.32 5.32 0 0 1-5.322 5.323 5.316 5.316 0 0 1-5.323-5.323 5.318 5.318 0 0 1 5.323-5.323zm7.837 5.323a7.84 7.84 0 0 0-7.837-7.838c-4.323 0-7.838 3.515-7.838 7.838s3.516 7.837 7.838 7.837a7.84 7.84 0 0 0 7.837-7.837zm-6.7-25.278c-1.256-2.793-4.206-4.453-7.188-4.64.123-1.511.718-2.606 2.144-3.264L18.766 0c-2.547 1.176-3.85 3.373-4.068 5.92-2.475.346-5.331 1.925-6.401 4.289-3.181 7.082-5.743 14.175-6.016 22.023-.206 6.23 5.486 11.656 11.449 12.546 2.959 2.987 5.658 4.877 10.022 5.191 3.384.242 7.564-.942 9.897-3.531 5.296-5.837 8.432-12.806 11.091-20.131.838-2.394-.163-5.579-1.735-7.506 1.14-.931 2.312-1.242 3.739-.713l.98-2.673c-2.573-.952-4.998-.374-6.936 1.19-1.969-1.613-5.423-2.737-7.848-1.767a114.08 114.08 0 0 0-5.24 2.205 94.484 94.484 0 0 0-2.688-6.558z" fill-rule="evenodd" fill="#ffffff" class="fill-000000"></path></svg>