<svg xmlns="http://www.w3.org/2000/svg" viewBox="0 0 32 32" xml:space="preserve" enable-background="new 0 0 32 32"><path d="M25.31 11h-5.83l1.27-3.17A3.527 3.527 0 0 0 17.48 3c-1.26 0-2.45.67-3.1 1.75L9.43 13H6c-1.65 0-3 1.35-3 3v10c0 1.65 1.35 3 3 3h15.82c2.34 0 4.35-1.59 4.87-3.88l2.22-9.6a3.7 3.7 0 0 0-3.6-4.52zM5 26V16c0-.55.45-1 1-1h3v12H6c-.55 0-1-.45-1-1zm21.96-10.93-2.22 9.6A2.985 2.985 0 0 1 21.82 27H11V14.28l5.1-8.5c.29-.48.82-.78 1.38-.78.83 0 1.52.68 1.52 1.51 0 .2-.04.39-.11.57l-1.82 4.54c-.12.31-.09.66.1.93s.5.45.83.45h7.31c.93 0 1.69.76 1.69 1.69 0 .13-.01.26-.04.38z" fill="#ffffff" class="fill-384970"></path></svg>