<svg viewBox="0 0 24 24" xmlns="http://www.w3.org/2000/svg"><path d="M23.053 12.683a3.132 3.132 0 0 0-1.737-5.341l-3.909-.568a1.13 1.13 0 0 1-.851-.619l-1.748-3.541a3.131 3.131 0 0 0-5.616 0L7.444 6.155a1.13 1.13 0 0 1-.851.619l-3.909.568a3.132 3.132 0 0 0-1.737 5.342l2.829 2.756a1.131 1.131 0 0 1 .326 1l-.667 3.892a3.131 3.131 0 0 0 4.542 3.3l3.5-1.838a1.125 1.125 0 0 1 1.052 0l3.5 1.838a3.11 3.11 0 0 0 3.3-.239 3.109 3.109 0 0 0 1.245-3.063l-.674-3.889a1.13 1.13 0 0 1 .326-1Zm-4.226 1.325a3.131 3.131 0 0 0-.9 2.772l.667 3.892a1.131 1.131 0 0 1-1.642 1.193l-3.5-1.838a3.134 3.134 0 0 0-2.914 0l-3.5 1.838a1.131 1.131 0 0 1-1.642-1.193l.667-3.891a3.132 3.132 0 0 0-.9-2.773l-2.819-2.757a1.132 1.132 0 0 1 .627-1.93l3.909-.568A3.128 3.128 0 0 0 9.237 7.04l1.748-3.54a1.165 1.165 0 0 1 2.03 0l1.748 3.54a3.128 3.128 0 0 0 2.357 1.713l3.909.568a1.132 1.132 0 0 1 .627 1.93Z" fill="#ffffff" class="fill-232323"></path></svg>