<svg viewBox="0 0 512 512" xml:space="preserve" xmlns="http://www.w3.org/2000/svg" enable-background="new 0 0 512 512"><path d="M256 128c-70.578 0-128 57.422-128 128s57.422 128 128 128 128-57.422 128-128-57.422-128-128-128zm0 240c-61.758 0-112-50.242-112-112s50.242-112 112-112 112 50.242 112 112-50.242 112-112 112zm0-200c-48.64 0-88 39.36-88 88s39.36 88 88 88 88-39.36 88-88-39.36-88-88-88zm45.76 105.6-32.48 32.88a18.593 18.593 0 0 1-26.56 0l-32.48-32.88c-11.84-11.92-13.92-31.2-3.6-44.56 12.4-16.16 35.52-17.28 49.36-3.28 13.84-14 36.96-12.88 49.36 3.28 10.32 13.36 8.24 32.64-3.6 44.56zM480 336v56c0 13.234-10.766 24-24 24h-8c-13.234 0-24-10.766-24-24v-56c0-4.422 3.578-8 8-8h40c4.422 0 8 3.578 8 8zm0-213.25V304c0 4.422-3.578 8-8 8h-40c-13.234 0-24-10.766-24-24v-75.547c0-36.336 14.148-70.484 39.836-96.164l4.852-4.852c4.602-4.594 11.43-5.961 17.438-3.469A15.954 15.954 0 0 1 480 122.75zm-360-19.312v87.445c0 8.07-4.008 15.523-10.711 19.953l-9.711 6.523A7.914 7.914 0 0 0 96 224v78.242c4.875 4.396 8 10.692 8 17.758v72c0 13.234-10.766 24-24 24h-8c-13.234 0-24-10.766-24-24v-72c0-7.065 3.125-13.362 8-17.758V224c0-2.68-1.32-5.148-3.531-6.609l-9.813-6.594C36.008 206.406 32 198.953 32 190.883v-87.445c0-4.422 3.578-8 8-8s8 3.578 8 8v87.445c0 2.672 1.32 5.141 3.523 6.594l9.82 6.602C68 208.477 72 215.938 72 224v72h8v-72c0-8.063 4-15.523 10.703-19.953l9.719-6.531a7.91 7.91 0 0 0 3.578-6.633v-87.445c0-4.422 3.578-8 8-8s8 3.578 8 8zm-64 72v-72c0-4.422 3.578-8 8-8s8 3.578 8 8v72c0 4.422-3.578 8-8 8s-8-3.579-8-8zm24 0v-72c0-4.422 3.578-8 8-8s8 3.578 8 8v72c0 4.422-3.578 8-8 8s-8-3.579-8-8z" fill="#f3f4f6" class="fill-000000"></path></svg>