<svg viewBox="0 0 24 24" xmlns="http://www.w3.org/2000/svg"><path d="M12 0a8 8 0 0 0-5 14.22V23a1 1 0 0 0 1.6.8l3.4-2.55c3.55 2.66 3.71 3 4.45 2.64s.55-.41.55-9.67A8 8 0 0 0 12 0ZM6 8a6 6 0 1 1 4.21 5.72A6 6 0 0 1 6 8Zm9 13c-3.56-2.67-2.45-2.66-6 0v-5.58a8.23 8.23 0 0 0 6 0Z" fill="#ffffff" class="fill-000000"></path><path d="m10 9.08-.3 1.83a.5.5 0 0 0 .73.52l1.57-.85 1.57.85a.5.5 0 0 0 .73-.52L14 9.08l1.3-1.3a.5.5 0 0 0-.3-.85l-1.78-.27L12.45 5a.5.5 0 0 0-.9 0l-.79 1.64L9 6.93a.5.5 0 0 0-.28.85Z" fill="#ffffff" class="fill-000000"></path></svg>